Melanie enjoys flirting and having little affairs. Her husband Victor seems to bear her antics with utmost calm and nonchalance. This impression turns out to be wrong, very wrong indeed. 
 
http://www.imdb.com/title/tt0082309/ 

Subtitles: English and Spanish 

Screenshoots: 
 
http://img546.imageshack.us/img546/870/vlcsnap8066330.jpg  
http://img32.imageshack.us/img32/3372/bscap0000wg.jpg  
http://img841.imageshack.us/img841/4100/vlcsnap8065937.jpg  
http://img839.imageshack.us/img839/6936/vlcsnap8067776.jpg 

Format : AVI 
Format/Info : Audio Video Interleave 
File size : 1.04 GiB 
Duration : 1h 30mn 
Overall bit rate : 1 640 Kbps 
Video #0 
ID : 0 
Format : MPEG-4 Visual 
Format profile : Simple@L3 
Format settings, BVOP : No 
Format settings, QPel : No 
Format settings, GMC : No warppoints 
Format settings, Matrix : Default (H.263) 
Codec ID : XVID 
Codec ID/Hint : XviD 
Duration : 1h 30mn 
Bit rate : 1 500 Kbps 
Width : 640 pixels 
Height : 384 pixels 
Display aspect ratio : 1.667 
Frame rate : 25.000 fps 
Resolution : 24 bits 
Colorimetry : 4:2:0 
Scan type : Progressive 
Bits/(Pixel*Frame) : 0.244 
Stream size : 973 MiB (91%) 
Writing library : XviD 1.1.2 (UTC 2006-11-01) 
Audio #1 
ID : 1 
Format : MPEG Audio 
Format version : Version 1 
Format profile : Layer 3 
Codec ID : 55 
Codec ID/Hint : MP3 
Duration : 1h 30mn 
Bit rate mode : Constant 
Bit rate : 128 Kbps 
Channel(s) : 2 channels 
Sampling rate : 44.1 KHz 
Resolution : 16 bits 
Video delay : 26ms 
Stream size : 83.0 MiB (8%) 
Alignment : Split accross interleaves 
Interleave, duration : 26 ms (0.65 video frame) 
Writing library : LAME3.96.1